<?xml version="1.0" encoding="UTF-8"?>
<svg id="Layer_1" xmlns="http://www.w3.org/2000/svg" version="1.1" viewBox="0 0 76.18 237.03">
  <!-- Generator: Adobe Illustrator 29.4.0, SVG Export Plug-In . SVG Version: 2.1.0 Build 152)  -->
  <defs>
    <style>
      .st0 {
        fill: #626262;
      }
    </style>
  </defs>
  <path class="st0" d="M22,23.59c10.78-2.18,22.58,22.38,25.74,30.85,13.27,35.59,11.8,74.51,17.62,111.38,2.83,17.89,10.58,38.76,10.82,57.26.08,5.99-2.34,11.97-8.66,13.11-7.78,1.41-44.21,1.02-51.5-1.02-18.1-5.08-14.52-33.65-12.75-48.22,1.29-10.61,5.17-19.89,6.84-30.16,4.71-28.87,5.95-66.57,5.18-95.9-.23-8.94-3.4-19.91-.51-28.43,1.09-3.22,3.53-8.11,7.21-8.86h.01ZM61.25,158.41c-3.94-35.22-4.8-78.17-19.82-110.67-2.11-4.56-12.71-22.65-18.46-21.19-9.12,2.32-4.77,24.9-4.67,31.32.37,24.02-.1,48.12-2.05,72.03-.69,8.48-2.26,17.02-2.98,25.51,10.24-10.93,22.73-18.72,36.91-8.42l11.07,11.41h0ZM33,145.66c-21.63,3.51-27.05,36.68-27.78,54.22-.44,10.71-1.04,29.9,12.6,32.48,11.06,2.09,33.41,1.9,44.98,1.11,11.18-.77,10.08-5.44,9.44-15.53-.8-12.71-5.61-40.9-10.8-52.2-4.76-10.39-15.94-22.1-28.46-20.07h.02Z"/>
</svg>