<?xml version="1.0" encoding="UTF-8"?>
<svg id="Layer_1" xmlns="http://www.w3.org/2000/svg" version="1.1" viewBox="0 0 61.87 233.84">
  <!-- Generator: Adobe Illustrator 29.4.0, SVG Export Plug-In . SVG Version: 2.1.0 Build 152)  -->
  <defs>
    <style>
      .st0 {
        fill: #626262;
      }
    </style>
  </defs>
  <path class="st0" d="M6.5,25.44c3.34-.94,9.21,3.75,11.76,5.9,28.28,23.78,27.99,99.55,33.63,134.37,2.7,16.64,9.63,30.62,9.97,49.09.12,6.56-3.36,17.13-10.62,18.46-6.7,1.23-28.73.43-35.23-1.67-15.02-4.86-14.67-12.81-14.26-26.82.52-17.79,4.58-36.67,6.05-54.95,2.28-28.3,5.29-66.18-.26-93.76-1.89-9.4-9.67-22.61-1.04-30.62h0ZM48.79,163.31c-2.87-26.08-4.91-52.48-10.3-78.19-4.41-21.01-10.08-45.56-30.19-56.79-6.35.46,2.77,30.33,3.37,34.61,3.12,21.97,2.25,45.8,1.18,67.91-.51,10.44-2.36,20.95-2.03,31.45l10.05-9.44c11.34-6.79,20.8,2.43,27.93,10.44h0ZM28.45,153.66c-6.57.22-16.09,10.51-18.45,16.36-3.37,8.35-5.03,28.42-5.25,37.75-.32,13.3,2.8,19.86,16.99,22.09,5.35.84,23.47,1.34,28.34.24,10.21-2.31,8.36-18.52,7.58-26.16-1.47-14.45-9.72-50.95-29.22-50.28h.01Z"/>
</svg>