<?xml version="1.0" encoding="UTF-8"?>
<svg id="Layer_1" xmlns="http://www.w3.org/2000/svg" version="1.1" viewBox="0 0 82.37 248.56">
  <!-- Generator: Adobe Illustrator 29.4.0, SVG Export Plug-In . SVG Version: 2.1.0 Build 152)  -->
  <defs>
    <style>
      .st0 {
        fill: #626262;
      }
    </style>
  </defs>
  <path class="st0" d="M14.35,4.2c2.62-.69,5.68,1.37,7.76,2.85,18.88,13.47,26.78,57.71,30.34,79.66,4.54,27.98,4.57,62.2,10.4,88.6,4.56,20.62,17.06,35.46,3.96,57.43s-31.16,18.36-49.92,5.53c-14-9.57-16.43-11.69-15.31-29.77.96-15.46,8-30.73,9.03-45.97,2.6-38.48,5.21-88,2-125.98-.55-6.47-7.27-29.97,1.74-32.36h0ZM58.61,167.05c-4.58-38.9-6.62-80.46-17.27-118.22-4.27-15.12-11.41-35.27-26.7-41.78-1.1,3.71-2.2,6.44-2.07,10.51.29,8.89,3.54,20.29,4.05,30,1.34,25.63-1.08,51.49-2.03,76.95-.51,13.49-.68,27.05-.95,40.54,15.49-17.83,30.74-15.58,44.98,2h-.01ZM60.28,236.71c14.55-16.57,8.35-41.49-.19-59.63-8.44-17.9-26.01-31.57-41.88-11.95-8.81,10.9-15.14,40.68-13.59,54.41.85,7.59,6.75,11.15,12.68,15.32,14.24,10.02,29.08,17.68,42.98,1.84h0Z"/>
</svg>