<?xml version="1.0" encoding="UTF-8"?>
<svg id="Layer_1" xmlns="http://www.w3.org/2000/svg" version="1.1" viewBox="0 0 71.7 234.13">
  <!-- Generator: Adobe Illustrator 29.4.0, SVG Export Plug-In . SVG Version: 2.1.0 Build 152)  -->
  <defs>
    <style>
      .st0 {
        fill: #626262;
      }
    </style>
  </defs>
  <path class="st0" d="M7.44,219.83c-6.39-6.98-7.1-17.81-6.08-26.87.81-7.13,4.83-14.18,5.64-20.36,3.8-29.02,2.92-70.19,2.13-99.96-.34-12.75-6.69-31.15,8.95-37.97,19.43-8.47,26.61,22.52,29.72,35.3,5.53,22.75,9.15,49.27,10.33,72.67.46,9.18-1.32,21.42.02,29.98.46,2.91,2.95,5.98,3.96,9.04,4.79,14.54,9.75,28.81-3,41.04-5.56,5.34-18.64,12.03-26.39,11.39-6.77-.55-20.69-9.26-25.28-14.27h0ZM55.08,168.17c.32-26.13-1.84-52.33-6.47-78.02-2.31-12.82-7.36-43.63-18.02-50.98-8.19-5.64-18.38-.04-19.52,9.48-1.65,13.74,2,33.69,2.12,48.02.1,12.36-2.36,26.27-1.05,39.04l-2.03,31.46c10.66-13.01,25.18-17.11,39-5.51l5.98,6.5h0ZM27.82,158.42c-18.62,3.19-27.38,37.81-21.79,53.31,2.84,7.88,21.15,19.79,29.42,19.38s24.61-11.24,27.36-19.72c5.93-18.36-11.58-56.99-34.98-52.98h-.01Z"/>
</svg>