<?xml version="1.0" encoding="UTF-8"?>
<svg id="Layer_1" xmlns="http://www.w3.org/2000/svg" version="1.1" viewBox="0 0 67.5 235.02">
  <!-- Generator: Adobe Illustrator 29.4.0, SVG Export Plug-In . SVG Version: 2.1.0 Build 152)  -->
  <defs>
    <style>
      .st0 {
        fill: #626262;
      }
    </style>
  </defs>
  <path class="st0" d="M21.18,27.52c8.51-2.3,15.22,20.75,16.99,26.65,8.62,28.75,12.61,61.86,16.28,91.72.98,8,.6,18.35,2.07,25.93,2.16,11.2,10.17,23.05,10.94,36.08.72,12.24-8.9,20.13-19.09,24.88-6.24,2.92-10.4,2.63-16.94,1.13C.52,226.83-.16,210.24,6.96,182.37c.98-3.86,3.46-7.51,4.27-10.73,4.57-17.96,2.31-41.21,5.28-59.72,2.4-23.22-3.29-50.45-1.03-73.03.33-3.32,2.05-10.38,5.71-11.37h-.01ZM53.46,166.37c-3.9-32.12-6.95-64.48-14.49-96-1.49-6.25-9.65-40.4-17.02-39.96-6.41,9.25-2.59,21.41-2.45,31.44.25,18.35-.3,36.73,0,55.08l-4.03,47.46c8.18-7.16,15.22-11.59,26.04-6.55,4.83,2.25,7.27,6.68,11.95,8.54h0ZM32.21,158.63c-5.68.32-11.36,5.03-14.73,9.28-8.28,10.47-14.89,39-7.88,50.83,4.76,8.03,24.5,13.98,33.3,12.58,5.07-.81,18.16-10.06,20.08-14.92,2.69-6.84-.09-16.1-2.02-23.02-3.48-12.51-12.6-35.66-28.75-34.76h0Z"/>
</svg>