<?xml version="1.0" encoding="UTF-8"?>
<svg id="Layer_1" xmlns="http://www.w3.org/2000/svg" version="1.1" viewBox="0 0 102.43 231.63">
  <!-- Generator: Adobe Illustrator 29.4.0, SVG Export Plug-In . SVG Version: 2.1.0 Build 152)  -->
  <defs>
    <style>
      .st0 {
        fill: #626262;
      }
    </style>
  </defs>
  <path class="st0" d="M43.73,41.78c4.58,4.63,8.11,12.28,11.86,17.64.02-19.33,20.07-3.1,26.01,3.99,21.92,26.21,11.47,68.88,13.5,100.5,1.08,16.88,9.23,30.01,6.91,47.93-1.49,11.46-15.3,19.64-26.15,18.33-7.6-.91-15.39-5.97-21.28-10.57-7.96,8.81-15.77,11.97-27.52,9.35-28.45-6.33-21.38-29.03-14.73-49.79.93-2.89,3.12-5.25,3.7-8.29C23.06,133.85.34,96.96,5.36,62.19c.63-4.39,3.96-14.69,9.24-14.69,6.85,1.66,9.24,8.91,10.99,14.93,2.78-2.23.22-5.39.42-8.49.75-11.78,5.53-24.48,17.73-12.15h0ZM55.07,127.42c11.07-23.01,8.43-50.14-4.96-71.53-8.6-13.72-19.44-26.54-21.01.04-1.09,18.48,8.65,40.64,16.81,57.17,2.43,4.92,5.52,10.22,9.17,14.32h0ZM60.18,53.51c-3.92,9.41,1.99,17.94,3.33,26.77,1.1,7.23,1.23,21.28.56,28.63-.77,8.38-4.47,17.81-9.48,24.5-1.7.04-13.14-22.94-14.68-26.3-6.24-13.7-12.91-40.32-19.99-51.01-1.44-2.18-3.55-3.78-5.33-5.64-8,7.23-7.21,22.39-6.49,32.46,1.26,17.7,8.75,34.47,10.86,52.14,1.3,10.93,2.03,22.54.13,33.37,6.11-2.23,12.02-5.19,18.62-5.87s12.97,1.38,18.87.89c3.39-.28,6.21-2.28,9.24-2.77,11.14-1.81,19.16,2.87,27.25,9.76-.09-1.93-.96-3.39-1.06-5.43-1.38-30.12,7.5-73.09-11.96-98.04-2.5-3.2-16.18-15.94-19.88-13.43v-.03ZM66.82,163.67c-3.03.49-5.78,2.39-9.23,2.76-11.95,1.26-21.73-3.87-34.2,3.81-10.5,6.46-14.98,30.05-13.07,41.45,2.23,13.29,23.45,17.78,34.08,12.56,4.03-1.98,7.37-7.98,10.09-7.84,3.93.2,14.23,11.1,24.1,11.03,7.72-.05,18.51-7.04,20.04-14.95,3.84-19.9-6.17-52.97-31.82-48.81h0Z"/>
</svg>