<?xml version="1.0" encoding="UTF-8"?>
<svg id="Layer_1" xmlns="http://www.w3.org/2000/svg" version="1.1" viewBox="0 0 93.38 223.61">
  <!-- Generator: Adobe Illustrator 29.4.0, SVG Export Plug-In . SVG Version: 2.1.0 Build 152)  -->
  <defs>
    <style>
      .st0 {
        fill: #626262;
      }
    </style>
  </defs>
  <path class="st0" d="M21.53,49.86c.38-.57,1.71-.73,2.37-2.08,1.74-3.57,1.75-12.46,7.79-13.33,7.41-1.07,8.97,8.91,12.43,10.54,2.12,1,4.71,0,7,1,6.96,3.05,22.1,29.15,25.19,36.81,8.57,21.22,6.31,42.79,8.95,65.05,1.96,16.49,9.56,38.64,7.88,54.13-1.79,16.55-19.82,25.56-34.98,19.97-4.33-1.6-11.37-9.28-13.56-9.51-5.53-.56-9.3,7.65-21.44,3.5-18.76-6.41-22.48-24.39-15.51-41.45,1.61-3.94,5.04-7.59,5.51-11.49,4.85-40.31-18.3-73.47,8.37-113.15h0ZM50.13,124.48c1.8-15.59,1.4-30.91-2.28-46.21-1.61-6.66-5.62-14.14-6.44-20.55-.47-3.66.77-7.69.46-9.6-.17-1.06-5.02-7.67-6.18-8.68-6.23-5.47-6.62,3.54-8.55,8.03,12.49.14,8.49,13.08,9.01,21.5.96,15.33,2.22,32.55,8.23,46.77,1.29,3.05,2.72,7.12,5.75,8.74ZM85.13,169.48c-.55-9.88-3.06-19.69-3.98-29.51-3.23-34.53-.05-51.94-22.59-81.41-2.87-3.75-8.49-12.35-13.53-9.5-3.46,4.83,4.36,22.08,5.82,28.21,4.32,18.21,4.14,36.29,1.3,54.7l-1.98.5c-12.24-16.75-15.63-37.18-17.01-57.5-.4-5.87,3.3-28.58-7.73-23.76-3.22,1.41-7.41,9.9-8.76,13.29-12.09,30.31,2.24,66.66-.51,97.98,13.32-9.85,26.65-6.02,41.5-4.01,3.41.46,6.72-.22,10.54.46,6.77,1.22,12.42,5.68,16.94,10.55h-.01ZM30.9,159.74c-26.44,3.83-33.46,44.84-5.98,53.45,9.84,3.08,12.93-4.62,20.45-3.52,6.12.9,9.34,9.58,19.37,10.69,34.28,3.8,32.92-50.1,3.78-57.78-5.99-1.58-10.96-.64-16.79-1.21-7.51-.74-12.22-2.88-20.85-1.63h.02Z"/>
</svg>