<?xml version="1.0" encoding="UTF-8"?>
<svg id="Layer_1" xmlns="http://www.w3.org/2000/svg" version="1.1" viewBox="0 0 81.78 235.54">
  <!-- Generator: Adobe Illustrator 29.4.0, SVG Export Plug-In . SVG Version: 2.1.0 Build 152)  -->
  <defs>
    <style>
      .st0 {
        fill: #626262;
      }
    </style>
  </defs>
  <path class="st0" d="M51.59,22.23c5.8-1.22,8.67,3.41,10.45,8.14,3.45,9.14,0,19.62-.23,29.14-.7,29.49.47,66.86,5.18,95.9,1.65,10.17,5.56,19.64,6.84,30.16,1.67,13.74,5.07,42.93-11.93,48.04-14.57,4.37-37.76-.11-53.34,1.23-5.4-1.21-7.7-8.26-7.63-13.13.24-18.41,7.88-39.39,10.81-57.26,6.15-37.51,4.9-109.89,33.12-137.88,1.27-1.26,5.09-4,6.72-4.34h.01ZM63.85,154.06c-4.18-32.32-5.57-64.9-5.03-97.54.09-5.62,4.64-31.18-5.43-31.44-10.2-.26-22.75,33.56-25.03,41.97-7.81,28.77-9.83,60.37-12.48,90l11.07-11.41c14.27-10.37,26.5-2.39,36.91,8.42h-.01ZM37.59,144.3c-20.5,3.33-26.55,32.91-29.44,49.55-1.19,6.85-5.58,31.72-1.76,36.17.65.75,1.49,1.25,2.41,1.59,13.16.14,27.54,1.33,40.6.48,9.26-.6,17.31-1.37,20.77-11.23,4.02-11.44.67-43.15-3.83-54.8-4.28-11.07-15.73-23.89-28.75-21.77h0Z"/>
</svg>