<?xml version="1.0" encoding="UTF-8"?>
<svg id="Layer_1" xmlns="http://www.w3.org/2000/svg" version="1.1" viewBox="0 0 59.18 233.77">
  <!-- Generator: Adobe Illustrator 29.4.0, SVG Export Plug-In . SVG Version: 2.1.0 Build 152)  -->
  <defs>
    <style>
      .st0 {
        fill: #626262;
      }
    </style>
  </defs>
  <path class="st0" d="M51.73,25.41c5.09-.84,6,4.07,6.29,8.3.67,9.84-5.81,25.86-7.02,37.05-2.75,25.5-.58,63.09,1.99,88.97,1.47,14.75,5.42,29.07,5.98,44.02.54,14.26,1.19,22.78-14.21,27.77-6.5,2.1-28.53,2.9-35.23,1.67C-2.98,230.9-.97,210.88.11,201.86c1.54-12.86,6.85-24.39,8.77-36.23,5.62-34.68,5.45-111.56,34.09-134.91,1.88-1.53,6.6-4.97,8.77-5.32h0ZM49.97,162.24c.34-10.51-1.53-21.01-2.03-31.45-1.05-21.89-1.67-46.22,1.17-67.91.58-4.4,9.68-34.14,3.38-34.6-25.41,15.19-30.22,53.43-34.34,80.64-2.71,17.88-4.6,36.54-5.67,54.33,6.07-8.87,16.68-16.84,27.45-10.44l10.05,9.44h-.01ZM31.63,153.59c-8.53.26-17.65,11.64-21.04,18.77-4.47,9.38-8.82,33.94-8.53,44.29.13,4.73,3.47,12.22,8.62,13.38,4.87,1.1,22.99.6,28.34-.24,14.19-2.23,17.31-8.79,16.99-22.09-.22-9.33-1.88-29.4-5.25-37.75-2.47-6.13-12-16.59-19.13-16.37h0Z"/>
</svg>