<?xml version="1.0" encoding="UTF-8"?>
<svg id="Layer_1" xmlns="http://www.w3.org/2000/svg" version="1.1" viewBox="0 0 77.46 248.66">
  <!-- Generator: Adobe Illustrator 29.4.0, SVG Export Plug-In . SVG Version: 2.1.0 Build 152)  -->
  <defs>
    <style>
      .st0 {
        fill: #626262;
      }
    </style>
  </defs>
  <path class="st0" d="M61.93,3.89c.86-.14,1.67-.36,2.53-.03,9.08,7.84,2.55,22.08,1.73,32.38-3.04,38.09-.6,87.4,2,125.98,1.03,15.24,8.07,30.39,9.03,45.97,1.12,18.08-1.32,20.2-15.31,29.77-16.07,10.99-32.37,17.51-46.7-.75-18.06-23.02-4.29-39.45.74-62.21,4.94-22.35,4.95-52.13,8.34-75.66,3.59-24.86,11.33-76.29,31.87-92.13,1.48-1.14,4-3.02,5.78-3.31h0ZM64.16,6.73c-10.43,3.85-17.34,16.07-21.47,26.02-7.76,18.7-10.01,39.93-14.4,59.6l-8.11,74.38c9.75-9.75,19.41-20.46,34.13-11.64l10.84,10.64c.13-43.87-5.89-88.58-1.86-132.37.83-9.05,5.25-17.61.86-26.63h.01ZM20.52,238.38c14.61,13.95,28.48,4.93,41.96-4.83,5.92-4.29,10.8-6.37,11.69-14.31,1.53-13.64-4.87-43.62-13.59-54.41-18.37-22.72-37.33-.99-44.43,18.39-6.92,18.88-11.97,39.56,4.37,55.17h0Z"/>
</svg>