<?xml version="1.0" encoding="UTF-8"?>
<svg id="Layer_1" xmlns="http://www.w3.org/2000/svg" version="1.1" viewBox="0 0 73.78 233.88">
  <!-- Generator: Adobe Illustrator 29.4.0, SVG Export Plug-In . SVG Version: 2.1.0 Build 152)  -->
  <defs>
    <style>
      .st0 {
        fill: #626262;
      }
    </style>
  </defs>
  <path class="st0" d="M44.52,26.15c5.09-1.25,7.63,6.4,8.15,10.4,2.84,21.82-3.67,50.28-.96,72.96-.16,2.72.97,5.23,1.09,7.91.67,14.9.84,31.16,3.08,45.92,2.6,17.1,17.76,43.94,2.36,59.61-4.66,4.74-23.34,11.13-29.9,10.92-8.48-.28-25.32-12.11-27.14-20.85-3.06-14.71,8-29.71,10.5-42.62,3-15.53,2.92-35.4,5.2-51.8,2.59-18.67,11.73-76.11,23.01-88.99,1-1.14,3.24-3.14,4.61-3.47h0ZM52.75,162.97c-3.99-34.04-4.46-68.25-4.03-102.54.03-2.36,1.04-4.55,1.08-6.92.06-3.21.9-25.65-4.47-24.5-6.71,1.44-14.48,33.24-16.08,39.94-7.53,31.52-10.58,63.88-14.49,96,4.69-1.86,7.12-6.29,11.95-8.54,10.82-5.04,17.85-.61,26.04,6.55h0ZM34.55,157.18c-15.75,1.39-23.69,21.85-27.29,34.8-1.92,6.92-4.71,16.18-2.02,23.02,1.91,4.86,15.01,14.11,20.08,14.92,8.79,1.4,28.54-4.56,33.3-12.58,6.97-11.76.37-40.43-7.88-50.83-3.6-4.54-10.09-9.86-16.19-9.32h0Z"/>
</svg>