<?xml version="1.0" encoding="UTF-8"?>
<svg id="Layer_1" xmlns="http://www.w3.org/2000/svg" version="1.1" viewBox="0 0 104.89 226.94">
  <!-- Generator: Adobe Illustrator 29.4.0, SVG Export Plug-In . SVG Version: 2.1.0 Build 152)  -->
  <defs>
    <style>
      .st0 {
        fill: #626262;
      }
    </style>
  </defs>
  <path class="st0" d="M75.94,59.29c3.38-2.41,3.28-7,6-10.5,8.67-11.17,14.78,2.56,15.91,11.08,4.68,35.42-18.21,71.25-10.69,108.69,1.92,9.54,8.95,19,9.66,31.36,1.54,26.83-33.22,35.74-48.38,16.4-11.71,10.13-25.64,15.09-39.44,5.4-4.95-3.48-7.57-7.87-8.1-13.9-1.59-17.96,5.78-30.19,7.03-47.05,2.46-33.09-10.07-80.87,18.53-105.47,3.63-3.13,14.82-11.9,18.96-6.99,1.92,2.28.05,7.61,3.51,6.97,10.43-25.68,31.19-31.94,27.03,4h-.02ZM68.44,36.58c-5.13-.39-15.63,16.27-18.03,20.69-10.52,19.35-13.12,47.4-1.98,67,12.24-22.08,28.12-49.3,25.38-75.36-.29-2.76-2.09-12.08-5.36-12.33h0ZM90.85,48.37c-1.71-1.21-6.73,1.7-7.7,3.64-9.13,26.92-19.9,53.19-33.23,78.28-1.44.31-1.62-.14-2.44-1.04-2.04-2.23-5.31-9.66-6.26-12.74-3.2-10.39-3.79-26.96-2.2-37.64,1.38-9.25,7.62-18.82,3.83-28.49-3.97-2.69-18.18,11.11-20.73,14.58-18.4,25.05-9.74,67.09-11.11,96.89-.09,2.04-.96,3.51-1.06,5.43,8.07-6.76,15.18-11.21,26.23-9.74,3.44.46,6.85,2.47,10.26,2.75,5.87.48,12.08-1.55,18.88-.9s12.44,3.44,18.62,5.87c-8.23-39.55,21.1-78.47,6.92-116.91v.02ZM28.69,160.55c-19.92,2.55-26.34,28.39-24.8,45.28.94,10.3,11.17,18.98,21.4,18.4,8.58-.48,21.16-11.3,24.13-11,1.25.13,5.97,6.23,9.19,7.88,10.99,5.62,32.34.51,34.23-13.41,1.94-14.22-3.4-38.2-18.69-43.13-11.71-3.78-18.47-.22-28.73-1.27-6.2-.63-9.31-3.69-16.73-2.74h0Z"/>
</svg>