<?xml version="1.0" encoding="UTF-8"?>
<svg id="Layer_1" xmlns="http://www.w3.org/2000/svg" version="1.1" viewBox="0 0 94 222.63">
  <!-- Generator: Adobe Illustrator 29.4.0, SVG Export Plug-In . SVG Version: 2.1.0 Build 152)  -->
  <defs>
    <style>
      .st0 {
        fill: #626262;
      }
    </style>
  </defs>
  <path class="st0" d="M71.93,48.87c26.72,39.85,3.49,72.65,8.37,113.15.47,3.9,3.89,7.55,5.51,11.49,6.97,17.05,3.26,35.04-15.51,41.45-12.14,4.15-15.69-4-21.4-3.47-2.91.27-8.89,7.73-13.6,9.47-15.15,5.61-33.19-3.43-34.98-19.97-1.56-14.45,4.78-32.31,6.86-47.15,3.36-23.94.98-49.61,9.96-72.04,3.59-8.97,16.72-31.39,24.65-36.34,3.03-1.89,6.19-.73,7.49-1.48,3.88-2.22,5.16-11.56,12.48-10.52,5.61.79,6.14,9.93,7.79,13.33.65,1.34,1.99,1.51,2.37,2.07h.01ZM66.32,46.48c-1.54-3.27-1.51-8.76-5.49-10.05-2.19,0-8.95,8.96-9.23,10.7s.93,5.56.61,8.75c-.65,6.56-4.97,14.58-6.6,21.4-3.6,15.1-4.15,30.85-2.28,46.21,2.85-1.44,4.21-5.19,5.47-8.02,8.65-19.37,7.65-42.45,8.73-63.27.93-4.22,4.92-5.53,8.79-5.73h0ZM48.22,47.58c-3.81-2.58-11.23,7.28-13.32,9.99-22.48,29.04-19.44,47.29-22.59,81.41-.91,9.84-3.19,19.65-3.98,29.51,4.37-4.61,10.55-9.4,16.94-10.55,3.82-.69,7.1,0,10.54-.46,14.86-1.95,28.14-5.89,41.5,4.01-2.67-31.27,11.28-66.87-.21-97.28-1.59-4.21-6.64-15.39-12.05-14.56-1.49.23-4.07,2.01-4.53,3.53-1.31,4.35.17,15.3-.2,20.8-1.22,18.03-4.59,42.15-16.7,56.24-.61.71.04,1.89-2.29,1.27-2.67-18.73-3.1-36.67,1.29-55.2,1.14-4.82,9.86-25.83,5.61-28.7h0ZM48.07,158.74c-5.59.53-11.58,1.14-17.24,1.76-37.49,4.15-36.76,65.02-.46,58.53,8.68-1.55,12.4-10.07,18.57-10.51,6.93-.49,9.94,6.58,19.6,3.67,10.42-3.14,18.58-14.26,17.78-25.19-1.61-22.19-17.76-30.22-38.24-28.26h0Z"/>
</svg>