<?xml version="1.0" encoding="UTF-8"?>
<svg id="Layer_1" xmlns="http://www.w3.org/2000/svg" version="1.1" viewBox="0 0 88 209.55">
  <!-- Generator: Adobe Illustrator 29.4.0, SVG Export Plug-In . SVG Version: 2.1.0 Build 152)  -->
  <defs>
    <style>
      .st0 {
        fill: #626262;
      }
    </style>
  </defs>
  <path class="st0" d="M72.28,46.44l.15,7.85c17.14-4.28,7.77,15.48,6.25,23.76-6.02,32.78-5.69,56.74,4.24,88.25,4.45,14.11-1.02,37.01-17.43,40.55-13.57,2.93-13.49-7.34-19.53-7.45-3.63-.07-9.19,5.37-12.85,7.07-22.69,10.5-36.66-7.46-31.38-29.38,3.04-12.61,3.35-17.48,4.72-30.28,2.96-27.81,7.61-68,32.49-85.5,4.69-3.3,7.25-2.29,9,2.99,5.73-7.31,13.17-22.26,24.36-17.85ZM69.42,48.3c-1.89-2.03-11.2,7.46-12.51,8.98-12,13.96-18.71,36.97-15.47,55l7.81-27.67c2.48-4.76,4.71-9.8,7.77-14.23,5.41-7.81,14.67-11.64,12.4-22.09ZM79.42,56.29c-7.92,1.09-14.4,8.51-18.82,14.67-11.28,15.7-15.46,35.35-17.17,54.34h-2.98c-3.3-12.6-3.87-24.23-1.57-37.06.57-3.18,9.17-25.85,4.05-25.93-29.62,22.57-31.84,63.63-33.49,97.98,16.17-16.42,33.64-22.15,55.37-11.88,1.9.9,9.52,6.78,10.62,5.87-5.32-24.25-5.37-51.09.11-75.38,1.75-7.75,6.65-14.28,3.89-22.61ZM74.07,158.65c-19.22-18.74-48.02-15.14-63.64,6.15-13.19,17.98-7.11,50.42,20.26,39.26,5.24-2.14,8.94-7.33,14.36-7.72,10.14-.72,10.54,13.95,23.71,5.79,14.07-8.71,17.36-31.73,5.31-43.48Z"/>
</svg>