<?xml version="1.0" encoding="UTF-8"?>
<svg id="Layer_1" xmlns="http://www.w3.org/2000/svg" version="1.1" viewBox="0 0 49.78 228.68">
  <!-- Generator: Adobe Illustrator 29.4.0, SVG Export Plug-In . SVG Version: 2.1.0 Build 152)  -->
  <defs>
    <style>
      .st0 {
        fill: #626262;
      }
    </style>
  </defs>
  <path class="st0" d="M44.88,3.88c3.28,3.71,2.57,15.07,2.3,20.18-.65,12.56-4.4,24.76-5.87,37.13-3.85,32.56-6.62,66.07-8.16,98.84-.51,10.88,4.26,32.37-7.41,36.59-8.93-.87-13.4-32.36-14.41-39.69-5.22-37.84-2.14-74.6-7.83-112.17C1.89,34.08-.39,17.59,1.24,7.13,1.88,3.05,4.71,1.01,8.66.55c5.71-.66,24.58-.82,29.97.07,1.5.25,5.31,2.2,6.24,3.26h0ZM5.43,4.81c-3.91,3.91.78,37.88,2.25,44.77,1.92,8.98,4.85,22.18,16.03,23.01,9.96.74,12.88-6.96,14.99-15.01,2.47-9.43,7.72-40.92,5.05-49.07-.85-2.6-4.55-4.48-7.12-4.88-5.62-.86-20.01-.61-25.98-.1-1.83.15-3.66.15-5.22,1.28h0ZM37.18,70.58c-9.15,8.72-18.64,6.24-26.98-2,.02,26.31.17,53.22,3.11,79.38.76,6.78,5.95,44,12.39,45.62,1.62.26,2.01-1.24,2.7-2.29,3.52-5.41,1.42-29.01,1.8-37.2l6.98-83.51Z"/>
</svg>