<?xml version="1.0" encoding="UTF-8"?>
<svg id="Layer_1" xmlns="http://www.w3.org/2000/svg" version="1.1" viewBox="0 0 50.96 237.75">
  <!-- Generator: Adobe Illustrator 29.4.0, SVG Export Plug-In . SVG Version: 2.1.0 Build 152)  -->
  <defs>
    <style>
      .st0 {
        fill: #626262;
      }
    </style>
  </defs>
  <path class="st0" d="M6.52.61c3.65-.82,27.94-.82,31.58,0,5,1.13,8.19,7.61,8.71,12.29,2.34,20.89-5.57,52.27-7.99,74.02-3.45,31.06-6.67,63.04-8.06,93.95-.34,7.62,1.87,24.96-2.47,30.51-2.61,3.34-4.98,2.47-7.49-.47-10.37-12.19-13.26-70.42-14.03-87.96-.86-19.51,1.11-43.11-.95-62.05-.92-8.49-4.47-17.29-5.05-26.95-.37-6.23-.95-22.59.07-28.02C1.28,3.57,4.23,1.13,6.53.62h-.01,0ZM41.5,6.69c-.94-1.19-4.42-3.12-6.14-3.35-3.78-.51-26.88-.34-29.32.79-.92.43-1.73.9-2.07,1.93-.94,2.81-.43,22.49-.16,26.83.6,9.46,6.26,41.27,16.71,44.34,4.9,1.44,12.09-5.14,14.71-8.9,5.97-8.55,8.35-35.44,8.6-46.39.1-4.33.41-11.76-2.34-15.25h0ZM37.8,71.41c-5.38,4.19-8.74,9.76-16.49,9.04-6.89-.64-8.11-7.19-12.49-11.04,1.63,31.78.6,63.78,4,95.49,1.13,10.52,4.1,34.87,9.68,43.23.9,1.35,1.53,1.46,2.82,2.26,3.5.88,2.31-32.53,2.46-35.43.09-1.72.92-3.35,1.02-5.07,1.89-32.96,4.62-65.78,9-98.49h0Z"/>
</svg>