<?xml version="1.0" encoding="UTF-8"?>
<svg id="Layer_1" xmlns="http://www.w3.org/2000/svg" version="1.1" viewBox="0 0 67.63 251.2">
  <!-- Generator: Adobe Illustrator 29.4.0, SVG Export Plug-In . SVG Version: 2.1.0 Build 152)  -->
  <defs>
    <style>
      .st0 {
        fill: #626262;
      }
    </style>
  </defs>
  <path class="st0" d="M31.88,0c9.57-.57,29.69,21.53,33.54,30,6.52,14.35-3.24,36-5.17,51.18-5.49,43.11-9.05,90.66-4.88,133.87.67,6.9,7.53,26.92-6.02,21.02-23.87-10.38-31.3-63.85-33.98-87.02-2.9-25.11-1.98-52.23-5.21-76.79-2.58-19.63-16.45-31.78-2.33-54.5C11.27,12.22,25.63.37,31.88,0ZM24.6,86.31c27.7,17.78,42.79-30.65,39.4-50.89-1.51-9-22.3-31.52-31.3-31.82-8.3-.28-23.4,15.09-25.78,23.27-4.47,15.33,3.79,50.53,17.68,59.45h0ZM52.9,85.34c-8.46,8.62-20.58,9.81-30.59,2.78l-9.07-8.93c2.85,31.9,3.49,64.08,9.33,95.67,3.22,17.43,9.25,45.74,24.75,56.25,2.57,1.75,7.58,4.85,7.31-.21-.24-4.49-1.8-9.33-2.25-13.85-1.89-18.95-2.88-38.85-2.17-57.91.91-24.58,7.41-53.46,7.08-76.93,0-.85.39-2.44-.53-2.52-1.79,1.42-2.38,4.15-3.85,5.65h-.01Z"/>
</svg>