<?xml version="1.0" encoding="UTF-8"?>
<svg id="Layer_1" xmlns="http://www.w3.org/2000/svg" version="1.1" viewBox="0 0 70 237.16">
  <!-- Generator: Adobe Illustrator 29.4.0, SVG Export Plug-In . SVG Version: 2.1.0 Build 152)  -->
  <defs>
    <style>
      .st0 {
        fill: #626262;
      }
    </style>
  </defs>
  <path class="st0" d="M57.88,16.57c13.46,13.05,4.46,26.16,1.71,41.35-4.61,25.49-7.2,58.84-6.28,84.7.46,12.96,3.25,26.39,3.98,39.02.49,8.39-1.49,31.78-14.55,20.55-14.13-12.15-24.86-69.37-28.12-88.88-3.25-19.46-3.86-40.84-7.41-59.59-2.52-13.27-10.54-23.13.08-36.12C9.69,14.66,26.12,1,29.02.34c1.79-.41,3.91-.43,5.72-.15,4.4.66,19.42,12.77,23.15,16.39h0ZM37.94,4.49c-3.51-1.87-7.23-1.98-10.61.18-2.92,1.86-14.34,10.99-16.58,13.42-7.27,7.89-6.15,15.13-3.74,24.82,7.87,31.71,40.24,40.02,51.55,5.98,3-9.02,5.73-19.96-.76-27.77-1.98-2.38-17.36-15.29-19.86-16.63ZM56.29,63.13c-1.42-1.15-6.52,5.35-8.06,6.43-9.14,6.35-20.32,5.6-29.26-.62l-7.67-7.82c3.15,33.9,8,68.43,17.27,101.21,2.26,7.98,10.65,38.58,20.22,39.4,5.67-2.37,5.82-13.5,5.48-19.11-2.03-33.8-5.33-59.2-1.98-94.01.82-8.5,2.09-17.18,4-25.49h0Z"/>
</svg>