<?xml version="1.0" encoding="UTF-8"?>
<svg id="Layer_1" xmlns="http://www.w3.org/2000/svg" version="1.1" viewBox="0 0 65.57 236.67">
  <!-- Generator: Adobe Illustrator 29.4.0, SVG Export Plug-In . SVG Version: 2.1.0 Build 152)  -->
  <defs>
    <style>
      .st0 {
        fill: #626262;
      }
    </style>
  </defs>
  <path class="st0" d="M33.04,202.81c-6.8-7.34-14.3-29.61-16.86-39.65-8.58-33.65-4.79-67.37-10.78-101.22-2.49-14.05-12.16-36.69-.35-48.43C7.72,10.85,23.16,1.53,26.66.62s7.32-.83,10.76.3c3.39,1.11,21.71,13.43,23.7,16.3,9.19,13.27,1.58,25.44-.33,38.54-1.26,8.66-.95,18.7-2.25,27.75-3.28,22.86-9.64,48.49-10.9,71.1-.71,12.84,1.27,27.13-.24,39.76-1.11,9.26-5.28,18.25-14.37,8.43h.01ZM28.41,3.38c-3.63.75-20.5,11.27-22.73,14.26-5.82,7.81-2.22,26.24.99,35.03,6.06,16.57,24.75,30.85,40.96,16.92,10.91-9.38,20.76-41.02,9.56-52.45-1.44-1.47-18.79-12.45-20.78-13.22-2.69-1.03-5.2-1.13-8-.55h0ZM8.7,64.15c4.58,21.85,2.81,44.42,5,66.49,1.79,18.11,9.77,56.57,22,70,2.92,3.21,5.12,4.98,7.07.08,3.92-9.87.82-20.19.88-30.12.17-27.33,7.21-54.19,10.9-81.1,1.2-8.75,1.62-17.66,3.13-26.36-13.23,19.58-35.11,20.03-48.98,1h0Z"/>
</svg>