<?xml version="1.0" encoding="UTF-8"?>
<svg id="Layer_1" xmlns="http://www.w3.org/2000/svg" version="1.1" viewBox="0 0 120.44 230.56">
  <!-- Generator: Adobe Illustrator 29.4.0, SVG Export Plug-In . SVG Version: 2.1.0 Build 152)  -->
  <defs>
    <style>
      .st0 {
        fill: #626262;
      }
    </style>
  </defs>
  <path class="st0" d="M55.65,124.06c-6.75-6.57-10.35,10.01-10.73,14.24-1.75,19.49,15.09,35.85,9.72,50.73-6.32,17.53-27.97-12.17-31.92-19.55-18.1-33.83-6.2-60.2-8.94-94.06-1.04-12.79-4.59-17.51-8.63-28.37C.4,34.31-3.03,16.57,7.38,5.75c10.91-11.34,25.41-3.65,36.04,3.71C54.63,2.11,65.84-.15,78.27,5.93c2.29,1.12,7.44,5.47,8.35,5.69,3.69.87,6.96-3.66,14.31-.34,10.37,4.69,8.8,20.16,7.98,29.99-.68,8.16-4.17,13.37-5.74,20.26-5.98,26.25-2.15,72.03,5.49,98.02,3.02,10.29,12.83,27.55,8.03,37.5-3.05,6.33-8.26,3.01-12.7.17-24.69-15.8-34.35-48.84-48.32-73.17h-.02ZM98.56,62.44c6.63-7.04,10.61-37.89,5.37-45.17-6.15-8.55-14.38-1.07-17.38-1.63-.67-.13-8.4-6.56-11.25-7.74-12.04-4.99-21.78-1.25-31.89,5.56C19.11-6.43-2.05,5.32,5.21,36.99c1,4.38,7.35,20.07,10.75,22.25,4.22,2.7,16.35,2.9,21.43,2.53,4.22-.3,8.57-2.21,12.87-1.92,6.19.41,12.46,5.4,20.11,5.97,4.4.33,8.2-.76,12.04-.83,6.1-.11,10.61,3.33,16.15-2.55h0ZM98.9,66.79c-2.26,1.11-5.22,2.62-7.74,2.76-5,.28-16.53-.27-21.78-.72-7.36-.63-14.26-5.44-20.21-5.79-3.34-.2-7.42,1.59-10.77,1.74-8.13.37-15.59-.08-23.48-1.98,2.06,11.29,2.64,23.02,2.04,34.54-.23,4.45-1.77,8.8-2.03,12.97-1.47,23.8,4.12,54.22,20.96,72.01,2.76,2.92,11.93,12.3,14.94,7.88,6.95-10.23-7.49-29.73-8.8-42.01-.83-7.74,1.18-33.64,13.88-27.87,2.81,1.28,19.33,36.13,22.84,42.15,7.12,12.19,16.8,27.94,30.17,33.9,1.82.81,2.84,1.63,4.81.23,3.43-12.81-4.99-25.23-8.53-37.58-8.68-30.33-8.31-60.96-6.29-92.22h-.01Z"/>
</svg>