<?xml version="1.0" encoding="UTF-8"?>
<svg id="Layer_1" xmlns="http://www.w3.org/2000/svg" version="1.1" viewBox="0 0 109.78 221.42">
  <!-- Generator: Adobe Illustrator 29.4.0, SVG Export Plug-In . SVG Version: 2.1.0 Build 152)  -->
  <defs>
    <style>
      .st0 {
        fill: #626262;
      }
    </style>
  </defs>
  <path class="st0" d="M49.21,115.22c-.23,6.67,1.27,13.32,2.68,19.81,2.44,11.28,9.99,27.02,11.23,36.77,2.31,18.16-13.97,11.44-21.88,2.89C19.25,150.9,10.31,75.67,2.5,42.43-2.33,21.86,2.11-8.92,30.49,2.44c4.64,1.86,13.51,9.52,17.3,9.77,2.72.18,8.68-4.44,12.15-5.76,22.74-8.67,38.99,4.31,37.27,28.25-2.47,34.44-15.03,60.36-4.5,96.52,3.69,12.67,17.41,32.52,11.26,45.27-6.89,14.28-25.5-14.72-29.18-20.35-7.05-10.81-12.25-23.26-19.16-33.84-.61-.93-5.07-8.66-6.42-7.07h0ZM15.93,3.45c-7.13,1.46-11.19,10.58-11.76,17.23-1.85,21.52,3.68,38.54,28.52,36.52,4.78-.39,8.8-2.43,14.01-2,6.9.57,13.57,5.35,21.84,4.94,11.08-.54,23.64-11.13,24.7-22.39,2.1-22.2-8.42-36.97-31.57-28.57-4.78,1.73-9.04,6.2-13.92,6.08-5.11-.13-10.77-6.07-15.67-8.42-5.18-2.49-10.19-4.62-16.15-3.39ZM46.45,112.46c1.53-1.52,5.48-1.88,6.79.23,10.6,15.17,17.34,32.82,28.15,47.84,4.13,5.73,19,26.59,20.7,10.07,1.3-12.66-9.81-27.82-13.16-40.6-7.02-26.79-2.11-52.11,2.27-78.78-8.16,8.58-17.02,13.26-29.24,11.74-5.24-.65-11.99-4.65-16.28-4.78-7.18-.23-14.74,3.16-23.88,1.96-4.74-.62-8.23-3.66-12.58-4.91,6.55,31.51,10.31,66.24,22.23,96.26,4.75,11.95,12.85,27.63,27.18,28.81.65-.09,1.46-3.86,1.5-4.71.38-7.38-10.36-34.42-12.43-45.35-.7-3.71-3.67-15.35-1.24-17.77h0Z"/>
</svg>