<?xml version="1.0" encoding="UTF-8"?>
<svg id="Layer_1" xmlns="http://www.w3.org/2000/svg" version="1.1" viewBox="0 0 123.75 219.49">
  <!-- Generator: Adobe Illustrator 29.4.0, SVG Export Plug-In . SVG Version: 2.1.0 Build 152)  -->
  <defs>
    <style>
      .st0 {
        fill: #626262;
      }
    </style>
  </defs>
  <path class="st0" d="M58.58,104.55c-1.9-.16-.9,3.16-.73,4.23.99,6.27,3.73,15,5.98,21.03,3.39,9.1,10.98,18.59,13.28,26.74,6.3,22.39-27.16-3.34-32.52-8.5C15.2,119.79,14.63,87.42,9.34,50.3c-1.95-13.73-13.39-25.62-6.48-41C7.22-.41,18.63-.97,27.86.78c4.76.9,11.68,4.83,16.23,4.86,7.14.05,12.85-4.16,22.9-2.99,5.18.6,9.96,4.17,13.36,4.73,6.12,1.02,9.11-4.53,15.24,3.67,4.63,6.18,4.87,16.49,4.01,24-.59,5.15-3.96,9.37-4.94,14.06-5.28,25.22-1.73,65.15,15.43,85.45,4.52,5.35,15.74,11.48,13.33,19.29-1.3,4.21-10.59,4.01-14.21,3.58-20.1-2.33-43.33-35.21-50.62-52.88h0ZM91.3,10.86c-3.28-2.65-7.11.18-11.13-.35-4.26-.56-8.91-4.5-15.04-5.01-8.89-.73-16.24,4.04-21.91,3.72-4.18-.23-11.84-4.72-17.4-5.43-9.73-1.24-17.97-.95-20.96,9.52-2.04,7.13-.34,11.11,1.46,17.98.67,2.55,4.36,14.59,5.91,15.12,8.33-.87,16.43-1.33,24.73.24,6.76,1.28,11.76,4.85,18.61,6.39,14.58,3.26,33.83,3.18,39.48-13.54,2.48-7.33,2.76-23.4-3.76-28.66v.02h.01ZM91.58,51.54c-8.56,5.87-19.38,6.91-29.53,6.04-9.6-.82-17.17-5.98-26.24-7.76-8.34-1.65-14.89-.63-23.23-.28.96,35.23,9.93,75.01,37.48,99.03,2.94,2.57,21.9,16.56,24.52,13.98,1.11-8.81-6.09-14.97-9.85-22.64-3.16-6.43-6.29-14.99-8.07-21.93-.94-3.68-5.33-19.93-1.45-21.31l3.29-.02c3.32,9.94,9.24,19.67,15.28,28.22,9.92,14.04,27.61,34.86,46.88,28.12.44-6.86-7.05-9.48-10.6-13.39-21.17-23.31-22.92-58.24-18.47-88.04v-.02h-.01Z"/>
</svg>