<?xml version="1.0" encoding="UTF-8"?>
<svg id="Layer_1" xmlns="http://www.w3.org/2000/svg" version="1.1" viewBox="0 0 49.78 228.23">
  <!-- Generator: Adobe Illustrator 29.4.0, SVG Export Plug-In . SVG Version: 2.1.0 Build 152)  -->
  <defs>
    <style>
      .st0 {
        fill: #626262;
      }
    </style>
  </defs>
  <path class="st0" d="M4.16,3.88c.93-1.05,4.74-3.01,6.24-3.26,5.39-.89,24.26-.73,29.97-.07,3.95.46,6.78,2.5,7.42,6.58,1.62,10.38-.61,27.02-2.26,37.63-6.41,41.37-1.7,84.32-10,126-1.74,8.75-3.77,21.24-12.24,25.87-10.57,1.03-7.09-29.94-7.41-36.59-1.53-32.48-4.32-66.55-8.16-98.84-1.43-11.99-5.15-23.98-5.87-36.13-.31-5.18-.98-17.47,2.3-21.18h.01,0ZM43.61,4.81c-1.56-1.13-3.39-1.12-5.22-1.28-5.97-.5-20.36-.75-25.98.1-2.57.39-6.27,2.28-7.12,4.88-2.67,8.15,2.58,39.64,5.05,49.07,2.11,8.05,5.03,15.75,14.99,15.01,11.18-.83,14.11-14.03,16.03-23.01,1.47-6.9,6.17-40.86,2.25-44.77ZM11.86,70.57l6.98,83.51c.38,8.19-1.72,31.79,1.8,37.2.69,1.06,1.08,2.55,2.7,2.29,6.45-1.62,11.63-38.83,12.39-45.62,2.94-26.16,3.09-53.07,3.11-79.38-8.34,8.24-17.83,10.72-26.98,2h0Z"/>
</svg>