<?xml version="1.0" encoding="UTF-8"?>
<svg id="Layer_1" xmlns="http://www.w3.org/2000/svg" version="1.1" viewBox="0 0 50.37 239.56">
  <!-- Generator: Adobe Illustrator 29.4.0, SVG Export Plug-In . SVG Version: 2.1.0 Build 152)  -->
  <defs>
    <style>
      .st0 {
        fill: #626262;
      }
    </style>
  </defs>
  <path class="st0" d="M9.7.68c4.04-.91,26.31-.85,30.73-.15,3.4.54,6.16,2.95,6.61,6.39,1.64,12.56-.5,31.07-2.35,43.75-6.93,47.47,1.44,102.48-12.42,148.58-1.21,4.02-6.25,19.09-12.34,12.77-4.9-5.09-2.53-24.5-2.9-32.09-1.8-36.64-5.96-73.42-10.17-109.83C5.2,55.72,1.6,41.51.99,26.97.67,19.22-.31,2.94,9.69.69h.01,0ZM6.28,6.76c-2.38,3.26-2.46,12.17-2.34,16.25.32,10.78,2.73,36.98,8.6,45.39,6.7,9.59,14.52,13.17,21.63,1.76,6.33-10.15,9.17-26.29,9.85-38.15.24-4.22.7-23.17-.21-25.88-.34-1.03-1.16-1.5-2.07-1.93-2.76-1.29-27.27-1.23-30.8-.28-.57.15-4.39,2.46-4.66,2.83h0ZM24.7,209.18c5.5-5.97,9.32-35.23,10.28-44.22,3.38-31.72,2.31-63.71,4-95.49-4.37,3.84-5.61,10.42-12.49,11.04-8.16.74-10.92-4.62-16.49-9.04,2.51,24.46,6.14,48.97,7.98,73.51.77,10.23,1.55,20.73,2.05,30.95.56,11.51-1.69,23.45,1.97,34.54.12.09,2.39-.95,2.7-1.29h0Z"/>
</svg>