<?xml version="1.0" encoding="UTF-8"?>
<svg id="Layer_1" xmlns="http://www.w3.org/2000/svg" version="1.1" viewBox="0 0 70.52 251.15">
  <!-- Generator: Adobe Illustrator 29.4.0, SVG Export Plug-In . SVG Version: 2.1.0 Build 152)  -->
  <defs>
    <style>
      .st0 {
        fill: #626262;
      }
    </style>
  </defs>
  <path class="st0" d="M32.49,0c7.61-1.77,16.67,4.55,22.19,9.39,10.51,9.21,13.48,22.23,12.09,35.89-.89,8.76-6.85,18.03-7.9,26.1-5.28,40.22-1.38,123.75-28.12,154.88-3.68,4.29-19.35,16.81-19.83,5.09-.29-7.04,3.99-19.28,3.85-27.07,1.47-46.65-.39-95.46-9.93-141.05C0,40.05-1.4,29.42,16.38,11.89,18.74,9.56,29.92.6,32.48,0c0,0,0,0,.01,0ZM34.53,3c-7.7,1.52-24.97,19.81-27.93,27.1-7.84,19.28,8.34,71.67,36.5,55.5,16.89-9.7,26.81-51.12,15.13-67.74-3.71-5.28-17.28-16.12-23.7-14.85h0ZM11.8,78.79c4.59,46.3,9.55,90.77,4.86,137.37-.76,7.6-7.12,22.81,5.62,13.62,15.2-10.95,20.89-38.3,24.19-55.81,5.71-30.34,6.81-60.95,8.29-91.71.07-1.42.95-2.57,1.03-3.97l-9.68,9.32c-8.95,6.06-20.84,5.64-28.83-1.84-2.08-1.95-3.2-5.45-5.5-6.99h.02,0Z"/>
</svg>