<?xml version="1.0" encoding="UTF-8"?>
<svg id="Layer_1" xmlns="http://www.w3.org/2000/svg" version="1.1" viewBox="0 0 71.7 238.7">
  <!-- Generator: Adobe Illustrator 29.4.0, SVG Export Plug-In . SVG Version: 2.1.0 Build 152)  -->
  <defs>
    <style>
      .st0 {
        fill: #626262;
      }
    </style>
  </defs>
  <path class="st0" d="M30.71.35c3.47-.64,5.45-.45,8.61.92,2.93,1.27,19.09,14.98,21.18,17.82,8.27,11.19,1,22.72-1.27,33.78-3.36,16.37-3.73,36.41-6.42,53.58-3.59,22.96-11.57,67.79-22.82,87.18-13.38,23.07-21.97,7.45-21-12,1-20.31,4.59-38.98,4.03-60.05-.8-30.58-5.91-61-12.09-90.92.19-3.74,3.54-10.26,6.05-13.04,2.13-2.35,16.81-14.05,19.52-15.48,1.47-.78,2.45-1.46,4.21-1.78h0ZM31.72,3.32c-3.94.77-24.65,17.88-26.18,21.84-2.25,5.83-.17,17.2,1.71,23.18,9.24,29.42,38.76,29.92,49.75,1.29,4.39-11.43,7.24-23.11-2.48-32.56-1.65-1.61-14.68-12.05-16.17-12.83-2.39-1.25-3.97-1.44-6.63-.92ZM15.21,200.88l2.26.85c9.44-.79,17.74-30.71,20-38.62,9.41-33,14.29-67.83,17.49-102-8.62,11.91-23.98,17.44-36.93,8.44-1.54-1.07-6.64-7.58-8.06-6.43,4.67,26.61,7.16,55.4,5.99,82.48-.54,12.48-3.58,25.93-4.03,37.96-.24,6.4.47,11.54,3.28,17.32h0Z"/>
</svg>