<?xml version="1.0" encoding="UTF-8"?>
<svg id="Layer_1" xmlns="http://www.w3.org/2000/svg" version="1.1" viewBox="0 0 70.77 241">
  <!-- Generator: Adobe Illustrator 29.4.0, SVG Export Plug-In . SVG Version: 2.1.0 Build 152)  -->
  <defs>
    <style>
      .st0 {
        fill: #626262;
      }
    </style>
  </defs>
  <path class="st0" d="M37.05,208.26c-9.09,9.82-13.27.83-14.37-8.43-1.51-12.63.48-26.92-.24-39.76-1.26-22.68-7.64-48.19-10.91-71.09-1.28-8.96-1-19.12-2.23-27.77-1.88-13.12-9.47-25.34-.33-38.54,2.11-3.05,19.29-14.49,23.04-15.96,4.72-1.86,8.96-1.54,13.63.16,6.77,2.46,23.01,13.09,24.54,20.46,2.94,14.23-5.84,40.02-7.65,55.9-3.78,33.12-1.57,99.22-25.47,125.03h-.01ZM35.1,8.82c-1.61.37-21.38,12.78-22.72,14.27-14.2,15.85,6.95,74.61,37.95,52.95,12.44-8.7,22.57-38.81,14.91-51.78-3.46-5.86-22.96-17.08-30.14-15.44ZM61.38,69.61c-8.78,11.94-23.96,19.07-37.73,10.24-4.59-2.94-7.23-7.78-11.25-11.24,1.73,11.05,2.51,22.29,4.13,33.36,3.54,24.27,9.63,48.38,9.91,73.09.06,5.42-3.28,33.82,3.44,34.36,6.72.54,17.08-28.38,18.78-34.04,7.7-25.66,7.02-45.34,8.75-71.25.76-11.5,2.25-23.13,3.98-34.51h-.01Z"/>
</svg>