<?xml version="1.0" encoding="UTF-8"?>
<svg id="Layer_1" xmlns="http://www.w3.org/2000/svg" version="1.1" viewBox="0 0 116.54 226.47">
  <!-- Generator: Adobe Illustrator 29.4.0, SVG Export Plug-In . SVG Version: 2.1.0 Build 152)  -->
  <defs>
    <style>
      .st0 {
        fill: #626262;
      }
    </style>
  </defs>
  <path class="st0" d="M68.05,123.8c-1.26-1.27-5.04-1.91-6.28-.26-13.93,24.33-23.97,57.65-48.55,73.45-6.4,4.11-12.5,5.57-13.84-4.02-1.37-9.89,3.92-16.51,6.61-25.2,8.85-28.6,11.86-55.67,10.28-85.7-.71-13.58-3.76-20.39-6.52-32.48-2.33-10.17-5.12-34.01,6.54-38.52,8.06-3.12,11.04,1.11,14.28.34.92-.22,5.11-3.98,7.04-5.01,12.9-6.88,24.21-4.95,36.16,2.85C96.97-8.86,119.03.23,116.31,31.11c-.98,11.09-6.69,17.86-9.76,27.24-7.75,23.64.21,46.16-1.23,69.77-1.09,17.81-7.09,38.63-18.53,52.47-5.03,6.09-19.21,22.17-24.25,8.22s8.94-28.36,9.77-43.7c.22-4.13-1.57-18.58-4.27-21.3h.01ZM18.64,62.21c5.54,5.88,10.05,2.44,16.15,2.55,3.84.07,7.64,1.16,12.04.83,7.66-.57,13.92-5.56,20.11-5.97s14.1,2.42,21.9,1.98c11.55-.64,13.75-2.25,18.63-12.37,5.33-11.05,9.9-29.54,1.33-39.68-10.89-12.9-24.13-3.91-35.01,3.68-10.11-6.81-19.85-10.55-31.89-5.56-2.85,1.18-10.58,7.61-11.25,7.74-1.18.22-6.06-2.73-8.88-2.69-3.87.06-9.39,3.62-10.27,7.55-2.04,9.11.44,34.83,7.14,41.94h0ZM102.28,62.56c-3.88.31-7.55,1.76-11.46,2.03-8.6.58-18.06-2.06-25.95-.95-5.47.77-10.33,4.37-17.05,4.95-5.53.48-15.65.89-21.04.77-3.43-.08-6.25-2.22-9.49-2.8,3.94,30.06,3.21,62.11-5.08,91.41-3.6,12.73-12.27,25.27-8.73,38.38,1.76,2.52,7.38-1.78,9.14-2.97,23.9-16.04,30.5-45.31,44.83-68.17,7.24-11.55,13.7-5.09,16.35,5.33,2.39,9.4,1.95,17.96-.79,27.23-3.25,10.98-14.43,22.5-5.06,33.7,4.07,1.16,16.27-12.45,18.75-16,23.52-33.62,11.59-63.39,13.55-99.45.24-4.33,1.66-9.09,2.04-13.45h-.01Z"/>
</svg>