<?xml version="1.0" encoding="UTF-8"?>
<svg id="Layer_1" xmlns="http://www.w3.org/2000/svg" version="1.1" viewBox="0 0 103.75 222.29">
  <!-- Generator: Adobe Illustrator 29.4.0, SVG Export Plug-In . SVG Version: 2.1.0 Build 152)  -->
  <defs>
    <style>
      .st0 {
        fill: #626262;
      }
    </style>
  </defs>
  <path class="st0" d="M55.13,115.27c-1.35-1.59-5.81,6.14-6.42,7.07-10.26,15.71-17.14,34.86-30.06,48.94-18.02,19.64-23.33,3.74-17.27-15.27,4.68-14.69,11.39-23.38,13.64-40.36,3.86-29.18-6.33-53.56-7.87-80.9C5.88,12.22,19.79-1.49,42.15,5.77c3.8,1.23,12.11,6.65,14.41,6.5,4.09-.27,13.47-8.64,18.6-10.46,25.73-9.13,31.27,18.24,27.53,37.53-.83,4.28-3.44,7.95-4.32,11.68-7.33,30.91-12.91,107.3-38.74,127.26-3.49,2.7-11.28,6.55-15.5,4.51-1.33-1.02-2.41-2.59-2.78-4.22-1.74-7.74,7.63-29.27,9.91-38.66.87-3.57,5.28-22.95,3.86-24.63h0ZM17.48,11.62c-7.83,7.31-8.36,25.37-3.55,34.36,4.27,7.97,14.52,14.42,23.66,14.32,7.27-.08,14.17-4.8,21.04-5.1,4.68-.2,8.65,1.7,13.03,2.05,16.5,1.34,27.03-5.25,28.52-22.45,1.31-15.13-1.05-36.42-21.59-30.59-6.46,1.84-16.36,10.47-21.04,11.03-5.12.61-11.06-4.65-16.45-6.43-8.08-2.67-16.88-3.48-23.61,2.8h-.01ZM95.13,55.27c-4.35,1.25-7.84,4.28-12.58,4.91-9.14,1.2-16.71-2.19-23.88-1.96-4.29.14-11.05,4.13-16.28,4.78-12.22,1.52-21.08-3.16-29.24-11.74,4.61,27.67,9.54,53.34,1.49,81-3.51,12.04-13.63,26.21-12.38,38.38,1.49,14.58,12.77.15,17.3-5.46,11.24-13.94,17.58-31.09,27.17-45.83,1.5-2.31,4.34-7.81,6.94-8.1,3.63-.41,5.44,1.96,5.38,5.38-.13,7.37-3.96,21.49-5.99,29.05s-9.2,23.78-8.84,29.94c.08,1.43,1,3.04.97,4.6,14.52-.49,22.69-16.1,27.44-27.97,12.08-30.22,15.92-65.23,22.51-96.98h-.01Z"/>
</svg>