<?xml version="1.0" encoding="UTF-8"?>
<svg id="Layer_1" xmlns="http://www.w3.org/2000/svg" version="1.1" viewBox="0 0 130.07 213.27">
  <!-- Generator: Adobe Illustrator 29.4.0, SVG Export Plug-In . SVG Version: 2.1.0 Build 152)  -->
  <defs>
    <style>
      .st0 {
        fill: #626262;
      }
    </style>
  </defs>
  <path class="st0" d="M73.18,104.62l-19.02,29.47c-11.26,11.28-23.09,26.55-41.23,23.29-17.05-3.07,5.72-19.86,9.24-24.28,15.49-19.48,17.4-50.08,15.01-73.97-1.51-15.14-12.53-33.92-1.98-48,5.9-7.88,8.12-2.92,14.4-3.51,3.25-.31,9.08-4.29,14.2-4.89,10.07-1.17,15.61,2.97,22.89,2.98,5.1,0,11.2-3.83,16.24-4.84,12.59-2.53,23.82-.03,26.61,13.9,2.79,13.93-6.42,23.88-8.09,35.62-6.01,42.22-7.76,80.35-46.95,107.05-4.47,3.05-14.48,9.78-19.68,8.05-5.86-8.65,4.5-18.69,8.24-26.48,5-10.4,8.78-22.95,10.11-34.37v-.02h0ZM39.48,10.93c-10.78,8.76-5.99,36.76,8.9,42,21.16,7.46,35.95-6.68,55.27-7.35,5.27-.18,9.78.81,14.9.92,1.55-.53,5.24-12.57,5.91-15.12,1.72-6.57,3.64-11.21,1.45-17.98-3.35-10.36-11.26-10.76-20.96-9.52-5.56.71-13.22,5.2-17.4,5.43-5.66.32-13.01-4.46-21.91-3.72-6.13.51-10.78,4.45-15.04,5.01-3.99.52-7.88-2.3-11.13.34h.01ZM118.19,49.61c-8.34-.36-14.89-1.37-23.23.28-9.07,1.79-16.64,6.94-26.24,7.76-10.15.87-20.97-.17-29.53-6.04,4.49,29.21,2.3,65.97-19.01,88.49-3.51,3.71-10.94,6.17-10.57,12.55,8.36,4.55,17.71.6,24.9-4.22,17.38-11.64,29.69-33.21,38.25-51.89l3.49.49c2.55,1.77-.63,14.55-1.36,17.77-1.61,7.1-4.56,15.81-7.53,22.47-3.85,8.61-11.33,15.96-11.17,25.33,2.48,2.51,21.7-11.51,24.52-13.97,27.7-24.16,36.39-63.67,37.48-99.03h0Z"/>
</svg>