<?xml version="1.0" encoding="UTF-8"?>
<svg xmlns="http://www.w3.org/2000/svg" version="1.1" viewBox="0 0 680 568">
  <!-- Generator: Adobe Illustrator 29.4.0, SVG Export Plug-In . SVG Version: 2.1.0 Build 152)  -->
  <defs>
    <style>
      .st0, .st1 {
        fill: #3fa9f5;
      }

      .st1 {
        opacity: .26;
      }

      .st2 {
        fill: #00a99d;
      }

      .st3 {
        fill: #666;
        font-family: Montserrat-Bold, Montserrat;
        font-size: 52.25px;
        font-weight: 700;
        letter-spacing: .11em;
      }
    </style>
  </defs>
  <g id="Layer_6">
    <path class="st1" d="M353.06,14.24s-11.62,92.94,79.28,130.26c3.65,1.5,16.65-125.5,16.65-125.5l-19-13h-71.52l-5.42,8.24Z"/>
  </g>
  <g id="Layer_5">
    <path class="st2" d="M414.4,282.66c-7.1,0-13.63-3.65-17.45-10.03l-48.33-80.72c-.55-.92-.25-2.1.67-2.65h0c4.9-2.94,11.26-1.34,14.2,3.56l44.01,73.5c2.28,3.82,6.14,4.47,8.99,3.81,2.85-.66,6.02-2.96,6.38-7.4l19.37-241c.19-2.4-.62-4.68-2.29-6.41-1.67-1.73-3.97-2.6-6.31-2.53l-78.53,3.3c-1.07.04-1.97-.78-2.01-1.85h0c-.24-5.71,4.19-10.53,9.9-10.77l70.13-2.95c8.19-.32,15.89,4.14,19.57,11.95,1.62,3.44,2.03,7.33,1.72,11.12l-19.3,240.12c-.73,9.09-6.94,16.31-15.82,18.38-1.64.38-3.26.57-4.87.57Z"/>
  </g>
  <g id="Layer_4">
    <path class="st0" d="M265.6,282.66c7.1,0,13.63-3.65,17.45-10.03l48.33-80.72c.55-.92.25-2.1-.67-2.65h0c-4.9-2.94-11.26-1.34-14.2,3.56l-44.01,73.5c-2.28,3.82-6.14,4.47-8.99,3.81-2.85-.66-6.02-2.96-6.38-7.4l-19.37-241c-.19-2.4.62-4.68,2.29-6.41,1.67-1.73,3.97-2.6,6.31-2.53l78.53,3.3c1.07.04,1.97-.78,2.01-1.85h0c.24-5.71-4.19-10.53-9.9-10.77L246.91.52c-8.19-.32-15.89,4.14-19.57,11.95-1.62,3.44-2.03,7.33-1.72,11.12l19.3,240.12c.73,9.09,6.94,16.31,15.82,18.38,1.64.38,3.26.57,4.87.57Z"/>
  </g>
  <g id="Layer_3">
    <g>
      <path d="M.13,373.96h39.9c10.01,0,18.89,1.98,26.64,5.95,7.75,3.97,13.77,9.54,18.06,16.7,4.28,7.17,6.42,15.4,6.42,24.68s-2.14,17.51-6.42,24.68c-4.28,7.17-10.3,12.74-18.06,16.7-7.76,3.97-16.64,5.95-26.64,5.95H.13v-94.67ZM39.22,456.87c7.66,0,14.4-1.49,20.22-4.46,5.82-2.98,10.3-7.14,13.46-12.51,3.16-5.36,4.73-11.56,4.73-18.6s-1.58-13.23-4.73-18.6c-3.16-5.36-7.64-9.53-13.46-12.51-5.82-2.98-12.56-4.46-20.22-4.46H13.66v71.14h25.56Z"/>
      <path d="M190.42,468.63l-20.42-29.08c-2.53.18-4.51.27-5.95.27h-23.4v28.81h-13.52v-94.67h36.92c12.26,0,21.91,2.93,28.94,8.79,7.03,5.86,10.55,13.93,10.55,24.21,0,7.3-1.8,13.52-5.41,18.66-3.61,5.14-8.75,8.88-15.42,11.22l22.45,31.78h-14.74ZM183.25,422.79c4.51-3.7,6.76-8.97,6.76-15.82s-2.25-12.1-6.76-15.76c-4.51-3.65-11.05-5.48-19.61-5.48h-22.99v42.6h22.99c8.56,0,15.1-1.85,19.61-5.54Z"/>
      <path d="M235.46,466.81c-1.8-1.76-2.71-3.99-2.71-6.69s.9-4.8,2.71-6.56c1.8-1.76,3.97-2.64,6.49-2.64s4.64.86,6.36,2.57c1.71,1.71,2.57,3.92,2.57,6.63s-.88,4.94-2.64,6.69c-1.76,1.76-3.85,2.64-6.29,2.64s-4.69-.88-6.49-2.64Z"/>
      <path d="M338.38,373.96h13.52v82.91h51.26v11.77h-64.78v-94.67Z"/>
      <path d="M494.72,444.97h-50.31l-10.41,23.67h-13.93l42.87-94.67h13.39l43.01,94.67h-14.2l-10.41-23.67ZM489.99,434.15l-20.42-46.39-20.42,46.39h40.84Z"/>
      <path d="M625.37,427.86c3.16,4.01,4.73,9.08,4.73,15.21,0,8.21-3.09,14.52-9.26,18.93-6.18,4.42-15.17,6.63-26.98,6.63h-45.17v-94.67h42.47c10.82,0,19.18,2.16,25.09,6.49,5.9,4.33,8.86,10.33,8.86,17.99,0,4.96-1.15,9.24-3.45,12.85-2.3,3.61-5.39,6.36-9.26,8.25,5.5,1.53,9.83,4.31,12.98,8.32ZM562.21,384.92v30.29h27.73c6.94,0,12.28-1.29,16.03-3.85,3.74-2.57,5.61-6.33,5.61-11.29s-1.87-8.72-5.61-11.29c-3.74-2.57-9.08-3.85-16.03-3.85h-27.73ZM610.62,453.89c3.88-2.52,5.82-6.49,5.82-11.9,0-10.55-7.71-15.82-23.13-15.82h-31.11v31.51h31.11c7.66,0,13.43-1.26,17.31-3.79Z"/>
      <path d="M666.34,373.96h13.52v94.67h-13.52v-94.67Z"/>
    </g>
  </g>
  <g id="Layer_2">
    <text class="st3" transform="translate(126.54 547.86)"><tspan x="0" y="0">Dental Clinic</tspan></text>
  </g>
</svg>